<svg version="1.1" id="Layer_1" xmlns="http://www.w3.org/2000/svg" xmlns:xlink="http://www.w3.org/1999/xlink" x="0px" y="0px"
	 width="288px" height="90.094px" viewBox="0 0 288 90.094" enable-background="new 0 0 288 90.094" xml:space="preserve">
<g>
	<path fill="#808080" d="M41.511,40.789c-2.24,9.097-7.63,15.677-17.775,15.677c-13.858,0-19.527-13.367-19.527-25.193
		c0-12.39,6.092-24.211,20.017-24.211c9.655,0,15.325,6.506,17.285,15.324l-5.667,1.05c-1.682-6.089-4.69-11.338-11.828-11.338
		c-10.429,0-13.229,11.338-13.229,19.663c0,3.784,0.63,8.468,2.24,11.969c1.96,4.268,5.669,7.696,10.709,7.696
		c7.348,0,10.777-5.527,12.315-11.823L41.511,40.789z"/>
	<path fill="#808080" d="M63.765,19.306c-10.707,0-16.306,8.537-16.306,18.403c0,9.381,4.758,18.756,15.395,18.756
		c10.778,0,16.515-8.749,16.515-18.684C79.369,28.405,74.193,19.306,63.765,19.306z M71.533,46.806
		c-1.68,3.223-4.548,5.111-8.188,5.111c-3.22,0-6.229-1.751-7.768-4.479c-1.539-2.801-2.028-6.506-2.028-9.729
		c0-2.867,0.419-6.296,1.748-8.887c1.542-3.077,4.62-5.039,8.048-5.039c3.08,0,6.02,1.61,7.697,4.201
		c1.822,2.87,2.241,6.368,2.241,9.726C73.282,40.789,73.002,44.008,71.533,46.806z"/>
	<rect x="88.119" y="7.759" fill="#808080" width="5.459" height="48.009"/>
	<path fill="#808080" d="M127.028,55.768v-7.07h-0.141c-1.749,4.41-6.018,7.768-10.917,7.768c-3.498,0-6.857-1.262-9.098-3.991
		c-2.38-2.937-2.798-6.996-2.798-10.633V20.216h5.457v21.625c0,2.026,0.142,4.687,1.19,6.509c1.051,1.96,3.5,3.357,5.74,3.357
		c2.939,0,5.458-1.331,7.347-3.639c2.169-2.658,2.73-5.599,2.73-8.959V20.216h5.458v35.552H127.028z"/>
	<path fill="#808080" d="M146.764,20.216v6.856h0.141c1.819-4.268,5.668-7.766,10.638-7.766c5.178,0,8.888,3.498,10.005,8.468
		c1.962-4.898,6.02-8.468,11.479-8.468c3.641,0,7.139,2.029,8.961,5.11c1.748,2.937,1.679,6.856,1.679,10.145v21.207h-5.461V34.562
		c0-2.379,0.141-4.896-0.979-7.066c-1.19-2.312-3.498-3.712-5.946-3.712c-2.731,0-5.251,1.681-6.863,3.991
		c-2.026,2.87-1.96,5.46-1.96,8.816v19.178H163V33.235c0-1.962-0.14-4.272-1.19-6.02c-1.26-2.103-3.567-3.432-5.948-3.432
		c-2.448,0-4.968,1.61-6.439,3.5c-1.819,2.31-2.17,5.18-2.17,8.118v20.366h-5.457V20.216H146.764z"/>
	<path fill="#808080" d="M225.846,25.112c-2.379-3.496-6.58-5.806-10.919-5.806c-5.039,0-8.189,2.588-10.426,6.787h-0.28V7.759
		h-5.459v48.009h2.66l2.026-6.092c2.17,3.988,6.228,6.789,10.922,6.789c10.497,0,14.831-9.938,14.831-18.965
		C229.201,33.371,228.225,28.613,225.846,25.112z M213.946,52.055c-3.008,0-6.016-1.609-7.699-4.058
		c-1.396-2.099-1.889-4.758-2.026-7.137v-6.299c0.138-5.182,4.129-10.848,9.726-10.848c7.559,0,9.378,8.75,9.378,14.696
		C223.324,44.29,221.224,52.055,213.946,52.055z"/>
	<rect x="237.598" y="7.759" fill="#808080" width="6.021" height="6.161"/>
	<rect x="237.881" y="20.216" fill="#808080" width="5.459" height="35.552"/>
	<path fill="#808080" d="M283.021,48.278V34.492c0-4.06,0-8.54-2.94-11.688c-2.66-3.077-7.065-3.498-10.917-3.498
		c-6.508,0-14.343,2.31-15.326,9.726l5.11,0.843c0.979-4.901,5.251-6.301,9.728-6.301c6.299,0,9.026,2.379,9.026,8.608v1.539h-4.618
		c-4.408,0-9.656,0.212-13.646,2.101c-3.922,1.75-6.579,5.599-6.579,9.869c0,7.065,5.739,10.775,12.388,10.775
		c5.668,0,9.938-2.243,12.455-7.349l0.631,6.651h5.46C283.088,53.456,283.021,50.867,283.021,48.278z M277.701,40.163
		c0,6.296-4.549,12.033-11.27,12.033c-3.915,0-7.696-1.819-7.696-6.228c0-7.349,8.818-8.118,14.417-8.118h4.549V40.163z"/>
	<path fill="#808080" d="M15.531,73.921c-0.015-1.136-0.405-2.2-1.723-2.2c-1.69,0-1.856,2.217-1.856,3.46
		c0,1.407,0.167,3.217,1.977,3.217c1.125,0,1.648-0.94,1.784-1.929l2.335,0.147c-0.255,2.351-1.871,3.746-4.239,3.746
		c-3.052,0-4.536-2.486-4.536-5.286c0-2.847,1.528-5.287,4.613-5.287c2.574,0,3.891,1.5,4.162,3.968L15.531,73.921z"/>
	<path fill="#808080" d="M37.63,71.364c-0.822-1.127-1.9-1.574-3.263-1.574c-3.04,0-4.402,2.546-4.402,5.27
		c0,1.289,0.329,2.62,1.076,3.685c0.811,1.139,1.934,1.619,3.326,1.619c1.393,0,2.606-0.571,3.399-1.738
		c0.657-0.972,0.974-2.398,0.974-3.565C38.741,73.819,38.366,72.369,37.63,71.364z M35.91,77.231
		c-0.269,0.765-0.719,1.167-1.542,1.167c-1.692,0-1.887-2.05-1.887-3.339c0-0.641,0.089-1.523,0.33-2.141
		c0.286-0.748,0.732-1.167,1.557-1.167c0.75,0,1.183,0.314,1.482,1.003c0.299,0.69,0.374,1.574,0.374,2.322
		C36.224,75.752,36.149,76.603,35.91,77.231z"/>
	<polygon fill="#808080" points="57.53,78.174 57.53,80.21 51.003,80.21 51.003,69.94 53.399,69.94 53.399,78.174 	"/>
	<polygon fill="#808080" points="75.798,78.174 75.798,80.21 69.271,80.21 69.271,69.94 71.664,69.94 71.664,78.174 	"/>
	<polygon fill="#808080" points="89.993,71.93 89.993,74.014 93.886,74.014 93.886,75.943 89.993,75.943 89.993,78.219 
		94.935,78.219 94.935,80.21 87.597,80.21 87.597,69.94 94.935,69.94 94.935,71.93 	"/>
	<path fill="#808080" d="M110.852,76.631v-1.915h4.221v5.494h-1.092l-0.347-1.181c-0.763,0.929-1.599,1.333-2.799,1.333
		c-3.009,0-4.254-2.503-4.254-5.196c0-2.786,1.366-5.377,4.465-5.377c2.216,0,3.714,1.348,4.027,3.52l-2.275,0.314
		c-0.104-1.036-0.658-1.902-1.812-1.902c-1.692,0-1.946,2.2-1.946,3.477c0,1.331,0.375,3.217,2.05,3.217
		c1.049,0,1.767-0.735,1.708-1.783H110.852z"/>
	<polygon fill="#808080" points="130.121,71.93 130.121,74.014 134.014,74.014 134.014,75.943 130.121,75.943 130.121,78.219 
		135.062,78.219 135.062,80.21 127.725,80.21 127.725,69.94 135.062,69.94 135.062,71.93 	"/>
	<path fill="#808080" d="M162.386,73.921c-0.014-1.136-0.402-2.2-1.724-2.2c-1.687,0-1.853,2.217-1.853,3.46
		c0,1.407,0.166,3.217,1.977,3.217c1.124,0,1.647-0.94,1.778-1.929l2.339,0.147c-0.255,2.351-1.869,3.744-4.241,3.744
		c-3.051,0-4.534-2.484-4.534-5.284c0-2.847,1.528-5.287,4.615-5.287c2.574,0,3.894,1.5,4.16,3.968L162.386,73.921z"/>
	<polygon fill="#808080" points="185.188,80.21 182.795,80.21 182.795,75.974 179.62,75.974 179.62,80.21 177.227,80.21 
		177.227,69.94 179.62,69.94 179.62,73.953 182.795,73.953 182.795,69.94 185.188,69.94 	"/>
	<rect x="197.962" y="69.94" fill="#808080" width="2.396" height="10.271"/>
	<path fill="#808080" d="M218.985,73.921c-0.015-1.136-0.403-2.2-1.72-2.2c-1.693,0-1.857,2.217-1.857,3.46
		c0,1.407,0.164,3.217,1.977,3.217c1.121,0,1.646-0.94,1.778-1.929l2.339,0.147c-0.255,2.351-1.874,3.744-4.236,3.744
		c-3.056,0-4.539-2.484-4.539-5.284c0-2.847,1.529-5.287,4.613-5.287c2.574,0,3.894,1.5,4.162,3.968L218.985,73.921z"/>
	<path fill="#808080" d="M239.096,69.94h-2.786l-3.293,10.271h2.109l0.646-2.112h3.324l0.627,2.112h2.591L239.096,69.94z
		 M236.354,76.212l1.094-3.608l1.093,3.608H236.354z"/>
	<path fill="#808080" d="M258.007,76.631v-1.915h4.22v5.494h-1.093l-0.344-1.181c-0.762,0.929-1.603,1.331-2.798,1.331
		c-3.013,0-4.253-2.501-4.253-5.194c0-2.786,1.359-5.377,4.463-5.377c2.212,0,3.71,1.348,4.024,3.52l-2.274,0.314
		c-0.107-1.036-0.657-1.902-1.812-1.902c-1.69,0-1.943,2.2-1.943,3.477c0,1.331,0.372,3.217,2.046,3.217
		c1.053,0,1.77-0.735,1.71-1.783H258.007z"/>
	<path fill="#808080" d="M282.111,71.364c-0.824-1.127-1.903-1.574-3.263-1.574c-3.043,0-4.403,2.546-4.403,5.27
		c0,1.289,0.329,2.62,1.079,3.685c0.81,1.139,1.931,1.617,3.324,1.617c1.391,0,2.605-0.569,3.4-1.736
		c0.657-0.974,0.975-2.398,0.975-3.565C283.224,73.819,282.85,72.369,282.111,71.364z M280.39,77.231
		c-0.267,0.765-0.72,1.167-1.541,1.167c-1.69,0-1.889-2.05-1.889-3.339c0-0.641,0.091-1.523,0.331-2.141
		c0.288-0.748,0.736-1.167,1.558-1.167c0.748,0,1.182,0.314,1.481,1.003c0.3,0.69,0.376,1.574,0.376,2.322
		C280.706,75.752,280.63,76.603,280.39,77.231z"/>
</g>
</svg>